custom-analysis
version=1
nRows=4
nColumns=133
inDegrees=no

This file contains tibia displacement and acting force.

Units are S.I. units (seconds, meters, Newtons, ...)
Angles are in degrees.

endheader
time	APT	knee_angle	aACL_R_force	pACL_R_force	aPCL_R_force	pPCL_R_force	aMCL_R_force	aLCL_R_force	aPCL_L_force	pPCL_L_force	aMCL_L_force	aLCL_L_force	aACL_R_length	pACL_R_length	aPCL_R_length	pPCL_R_length	aMCL_R_length	aLCL_R_length	aPCL_L_length	pPCL_L_length	aMCL_L_length	aLCL_L_length	aACL_R_strain	pACL_R_strain	aPCL_R_strain	pPCL_R_strain	aMCL_R_strain	aLCL_R_strain	aPCL_L_strain	pPCL_L_strain	aMCL_L_strain	aLCL_L_strain	femur_lat_meniscii_l.femur_lat_l.force.X	femur_lat_meniscii_l.femur_lat_l.force.Y	femur_lat_meniscii_l.femur_lat_l.force.Z	femur_lat_meniscii_l.femur_lat_l.torque.X	femur_lat_meniscii_l.femur_lat_l.torque.Y	femur_lat_meniscii_l.femur_lat_l.torque.Z	femur_lat_meniscii_l.meniscus_lat_l.force.X	femur_lat_meniscii_l.meniscus_lat_l.force.Y	femur_lat_meniscii_l.meniscus_lat_l.force.Z	femur_lat_meniscii_l.meniscus_lat_l.torque.X	femur_lat_meniscii_l.meniscus_lat_l.torque.Y	femur_lat_meniscii_l.meniscus_lat_l.torque.Z	femur_med_meniscii_l.femur_med_l.force.X	femur_med_meniscii_l.femur_med_l.force.Y	femur_med_meniscii_l.femur_med_l.force.Z	femur_med_meniscii_l.femur_med_l.torque.X	femur_med_meniscii_l.femur_med_l.torque.Y	femur_med_meniscii_l.femur_med_l.torque.Z	femur_med_meniscii_l.meniscus_med_l.force.X	femur_med_meniscii_l.meniscus_med_l.force.Y	femur_med_meniscii_l.meniscus_med_l.force.Z	femur_med_meniscii_l.meniscus_med_l.torque.X	femur_med_meniscii_l.meniscus_med_l.torque.Y	femur_med_meniscii_l.meniscus_med_l.torque.Z	femur_lat_meniscii_r.femur_lat_r.force.X	femur_lat_meniscii_r.femur_lat_r.force.Y	femur_lat_meniscii_r.femur_lat_r.force.Z	femur_lat_meniscii_r.femur_lat_r.torque.X	femur_lat_meniscii_r.femur_lat_r.torque.Y	femur_lat_meniscii_r.femur_lat_r.torque.Z	femur_lat_meniscii_r.meniscus_lat_r.force.X	femur_lat_meniscii_r.meniscus_lat_r.force.Y	femur_lat_meniscii_r.meniscus_lat_r.force.Z	femur_lat_meniscii_r.meniscus_lat_r.torque.X	femur_lat_meniscii_r.meniscus_lat_r.torque.Y	femur_lat_meniscii_r.meniscus_lat_r.torque.Z	femur_med_meniscii_r.femur_med_r.force.X	femur_med_meniscii_r.femur_med_r.force.Y	femur_med_meniscii_r.femur_med_r.force.Z	femur_med_meniscii_r.femur_med_r.torque.X	femur_med_meniscii_r.femur_med_r.torque.Y	femur_med_meniscii_r.femur_med_r.torque.Z	femur_med_meniscii_r.meniscus_med_r.force.X	femur_med_meniscii_r.meniscus_med_r.force.Y	femur_med_meniscii_r.meniscus_med_r.force.Z	femur_med_meniscii_r.meniscus_med_r.torque.X	femur_med_meniscii_r.meniscus_med_r.torque.Y	femur_med_meniscii_r.meniscus_med_r.torque.Z	femur_med_tibia_l.tibia_upper_l.force.X	femur_med_tibia_l.tibia_upper_l.force.Y	femur_med_tibia_l.tibia_upper_l.force.Z	femur_med_tibia_l.tibia_upper_l.torque.X	femur_med_tibia_l.tibia_upper_l.torque.Y	femur_med_tibia_l.tibia_upper_l.torque.Z	femur_med_tibia_l.femur_med_l.force.X	femur_med_tibia_l.femur_med_l.force.Y	femur_med_tibia_l.femur_med_l.force.Z	femur_med_tibia_l.femur_med_l.torque.X	femur_med_tibia_l.femur_med_l.torque.Y	femur_med_tibia_l.femur_med_l.torque.Z	femur_lat_tibia_l.tibia_upper_l.force.X	femur_lat_tibia_l.tibia_upper_l.force.Y	femur_lat_tibia_l.tibia_upper_l.force.Z	femur_lat_tibia_l.tibia_upper_l.torque.X	femur_lat_tibia_l.tibia_upper_l.torque.Y	femur_lat_tibia_l.tibia_upper_l.torque.Z	femur_lat_tibia_l.femur_lat_l.force.X	femur_lat_tibia_l.femur_lat_l.force.Y	femur_lat_tibia_l.femur_lat_l.force.Z	femur_lat_tibia_l.femur_lat_l.torque.X	femur_lat_tibia_l.femur_lat_l.torque.Y	femur_lat_tibia_l.femur_lat_l.torque.Z	femur_med_tibia_r.tibia_upper_r.force.X	femur_med_tibia_r.tibia_upper_r.force.Y	femur_med_tibia_r.tibia_upper_r.force.Z	femur_med_tibia_r.tibia_upper_r.torque.X	femur_med_tibia_r.tibia_upper_r.torque.Y	femur_med_tibia_r.tibia_upper_r.torque.Z	femur_med_tibia_r.femur_med_r.force.X	femur_med_tibia_r.femur_med_r.force.Y	femur_med_tibia_r.femur_med_r.force.Z	femur_med_tibia_r.femur_med_r.torque.X	femur_med_tibia_r.femur_med_r.torque.Y	femur_med_tibia_r.femur_med_r.torque.Z	femur_lat_tibia_r.tibia_upper_r.force.X	femur_lat_tibia_r.tibia_upper_r.force.Y	femur_lat_tibia_r.tibia_upper_r.force.Z	femur_lat_tibia_r.tibia_upper_r.torque.X	femur_lat_tibia_r.tibia_upper_r.torque.Y	femur_lat_tibia_r.tibia_upper_r.torque.Z	femur_lat_tibia_r.femur_lat_r.force.X	femur_lat_tibia_r.femur_lat_r.force.Y	femur_lat_tibia_r.femur_lat_r.force.Z	femur_lat_tibia_r.femur_lat_r.torque.X	femur_lat_tibia_r.femur_lat_r.torque.Y	femur_lat_tibia_r.femur_lat_r.torque.Z	femur_lat_meniscii_force_r	femur_med_meniscii_force_r	femur_lat_tibia_force_r	femur_med_tibia_force_r
      0.17224019	      0.01205042	     69.08194377	      0.00000000	      0.00000000	    906.04985605	    360.86867781	      0.00000000	      0.00000000	      0.00000000	      0.00000000	    116.99866359	      0.00000000	      0.03123002	      0.01937650	      0.03919926	      0.03082170	      0.06073148	      0.05600448	      0.01525851	      0.01651186	      0.06550154	      0.04489616	     -0.14046673	     -0.27963588	      0.21703652	      0.18785486	     -0.05274314	     -0.14883840	      0.00000079	     -0.32847694	      0.07222957	     -0.00000086	      2.76307435	     50.99597937	     -9.56042239	      5.21997485	     -0.02578839	      1.48581788	     -2.76307435	    -50.99597937	      9.56042239	     -1.74637766	      0.02558040	     -0.48301696	     -3.31599387	     20.97615968	     -3.40468921	      0.94473225	     -0.02138609	     -1.00501789	      3.31599387	    -20.97615968	      3.40468921	      0.28075727	      0.00368718	     -0.29758878	    175.11549496	     -1.10231399	     21.46981723	     -8.64783100	      4.30237440	     70.85635493	   -175.11549496	      1.10231399	    -21.46981723	      0.30084405	     -5.36856349	     -2.83008993	    344.57854497	    -55.27446343	     25.89200729	    -11.59406057	     -7.19120488	    139.23337819	   -344.57854497	     55.27446343	    -25.89200729	      1.35386532	      5.47524821	     -6.61704781	      0.00000000	      0.00000000	      0.00000000	      0.00000000	      0.00000000	      0.00000000	      0.00000000	      0.00000000	      0.00000000	      0.00000000	      0.00000000	      0.00000000	      0.00000000	      0.00000000	      0.00000000	      0.00000000	      0.00000000	      0.00000000	      0.00000000	      0.00000000	      0.00000000	      0.00000000	      0.00000000	      0.00000000	   -595.94189566	   -688.38012242	    206.30771279	    -12.89201548	     14.20789899	     10.28642801	    595.94189566	    688.38012242	   -206.30771279	     95.28555447	    -11.31078098	    237.38284022	      0.00000000	      0.00000000	      0.00000000	      0.00000000	      0.00000000	      0.00000000	      0.00000000	      0.00000000	      0.00000000	      0.00000000	      0.00000000	      0.00000000	    176.43016954	    349.94290392	      0.00000000	    933.58278064
      0.17232508	      0.01205431	     69.13331755	      0.00000000	      0.00000000	    906.97763223	    361.37637052	      0.00000000	      0.00000000	      0.00000000	      0.00000000	    116.99866359	      0.00000000	      0.03122787	      0.01937491	      0.03920385	      0.03082671	      0.06073299	      0.05599791	      0.01525851	      0.01651186	      0.06550154	      0.04489616	     -0.14052606	     -0.27969481	      0.21717910	      0.18804787	     -0.05271950	     -0.14893826	      0.00000079	     -0.32847694	      0.07222957	     -0.00000086	      2.76307435	     50.99597937	     -9.56042239	      5.21997485	     -0.02578839	      1.48581788	     -2.76307435	    -50.99597937	      9.56042239	     -1.74637766	      0.02558040	     -0.48301696	     -3.31599387	     20.97615968	     -3.40468921	      0.94473225	     -0.02138609	     -1.00501789	      3.31599387	    -20.97615968	      3.40468921	      0.28075727	      0.00368718	     -0.29758878	    175.24056364	     -1.78279151	     21.36711745	     -8.58988981	      4.30354277	     70.91389206	   -175.24056364	      1.78279151	    -21.36711745	      0.28021901	     -5.36813284	     -2.85167196	    345.05611864	    -55.74217911	     25.89456278	    -11.60505479	     -7.20098181	    139.42646737	   -345.05611864	     55.74217911	    -25.89456278	      1.36185525	      5.48289942	     -6.62990117	      0.00000000	      0.00000000	      0.00000000	      0.00000000	      0.00000000	      0.00000000	      0.00000000	      0.00000000	      0.00000000	      0.00000000	      0.00000000	      0.00000000	      0.00000000	      0.00000000	      0.00000000	      0.00000000	      0.00000000	      0.00000000	      0.00000000	      0.00000000	      0.00000000	      0.00000000	      0.00000000	      0.00000000	   -596.82464357	   -688.04068143	    206.69020403	    -12.88959712	     14.23570537	     10.29170003	    596.82464357	    688.04068143	   -206.69020403	     95.43478000	    -11.32944974	    237.73467208	      0.00000000	      0.00000000	      0.00000000	      0.00000000	      0.00000000	      0.00000000	      0.00000000	      0.00000000	      0.00000000	      0.00000000	      0.00000000	      0.00000000	    176.54740779	    350.48743761	      0.00000000	    933.98098210
      0.17246663	      0.01206074	     69.21900032	      0.00000000	      0.00000000	    908.56799221	    362.35415876	      0.00000000	      0.00000000	      0.00000000	      0.00000000	    116.99866359	      0.00000000	      0.03122428	      0.01937229	      0.03921151	      0.03083507	      0.06073553	      0.05598696	      0.01525851	      0.01651186	      0.06550154	      0.04489616	     -0.14062487	     -0.27979246	      0.21741689	      0.18837012	     -0.05267995	     -0.14910464	      0.00000079	     -0.32847694	      0.07222957	     -0.00000086	      2.76307435	     50.99597937	     -9.56042239	      5.21997485	     -0.02578839	      1.48581788	     -2.76307435	    -50.99597937	      9.56042239	     -1.74637766	      0.02558040	     -0.48301696	     -3.31599387	     20.97615968	     -3.40468921	      0.94473225	     -0.02138609	     -1.00501789	      3.31599387	    -20.97615968	      3.40468921	      0.28075727	      0.00368718	     -0.29758878	    175.56173126	     -1.92397611	     21.53633245	     -8.65425209	      4.31245237	     71.04182435	   -175.56173126	      1.92397611	    -21.53633245	      0.27769074	     -5.38270118	     -2.85266149	    344.97242133	    -56.10137800	     25.66557620	    -11.52077798	     -7.20187363	    139.38839276	   -344.97242133	     56.10137800	    -25.66557620	      1.36457745	      5.48853763	     -6.62345695	      0.00000000	      0.00000000	      0.00000000	      0.00000000	      0.00000000	      0.00000000	      0.00000000	      0.00000000	      0.00000000	      0.00000000	      0.00000000	      0.00000000	      0.00000000	      0.00000000	      0.00000000	      0.00000000	      0.00000000	      0.00000000	      0.00000000	      0.00000000	      0.00000000	      0.00000000	      0.00000000	      0.00000000	   -598.26413867	   -687.82231458	    206.98126546	    -12.88263929	     14.26968932	     10.31295871	    598.26413867	    687.82231458	   -206.98126546	     95.54709603	    -11.35620035	    238.30443488	      0.00000000	      0.00000000	      0.00000000	      0.00000000	      0.00000000	      0.00000000	      0.00000000	      0.00000000	      0.00000000	      0.00000000	      0.00000000	      0.00000000	    176.88820419	    350.44551344	      0.00000000	    934.80519912
      0.17252694	      0.01206346	     69.25550716	      0.00000000	      0.00000000	    909.25206347	    362.79028350	      0.00000000	      0.00000000	      0.00000000	      0.00000000	    116.99866359	      0.00000000	      0.03122275	      0.01937117	      0.03921478	      0.03083864	      0.06073661	      0.05598230	      0.01525851	      0.01651186	      0.06550154	      0.04489616	     -0.14066704	     -0.27983398	      0.21751829	      0.18850769	     -0.05266306	     -0.14917546	      0.00000079	     -0.32847694	      0.07222957	     -0.00000086	      2.76307435	     50.99597937	     -9.56042239	      5.21997485	     -0.02578839	      1.48581788	     -2.76307435	    -50.99597937	      9.56042239	     -1.74637766	      0.02558040	     -0.48301696	     -3.31599387	     20.97615968	     -3.40468921	      0.94473225	     -0.02138609	     -1.00501789	      3.31599387	    -20.97615968	      3.40468921	      0.28075727	      0.00368718	     -0.29758878	    175.74376087	     -1.87648023	     21.58806939	     -8.67601239	      4.31705232	     71.11308425	   -175.74376087	      1.87648023	    -21.58806939	      0.27920844	     -5.38938454	     -2.84974542	    344.78743131	    -56.24175926	     25.56810091	    -11.48680464	     -7.19813295	    139.31177961	   -344.78743131	     56.24175926	    -25.56810091	      1.36768176	      5.48730128	     -6.61806822	      0.00000000	      0.00000000	      0.00000000	      0.00000000	      0.00000000	      0.00000000	      0.00000000	      0.00000000	      0.00000000	      0.00000000	      0.00000000	      0.00000000	      0.00000000	      0.00000000	      0.00000000	      0.00000000	      0.00000000	      0.00000000	      0.00000000	      0.00000000	      0.00000000	      0.00000000	      0.00000000	      0.00000000	   -598.77526021	   -688.12288806	    207.09595692	    -12.88342357	     14.28288407	     10.33760127	    598.77526021	    688.12288806	   -207.09595692	     95.59635684	    -11.36620532	    238.50111253	      0.00000000	      0.00000000	      0.00000000	      0.00000000	      0.00000000	      0.00000000	      0.00000000	      0.00000000	      0.00000000	      0.00000000	      0.00000000	      0.00000000	    177.07466053	    350.27879761	      0.00000000	    935.37888403
